<mxfile host="app.diagrams.net" modified="2023-11-17T05:40:26.303Z" agent="Mozilla/5.0 (Windows NT 10.0; Win64; x64; rv:109.0) Gecko/20100101 Firefox/119.0" etag="qvT1T08er3xOZz2IgbQK" version="22.1.2" type="github">
  <diagram name="Page-1" id="WzHrJLc5DRaF-GkGW-xT">
    <mxGraphModel dx="794" dy="688" grid="1" gridSize="10" guides="1" tooltips="1" connect="1" arrows="1" fold="1" page="1" pageScale="1" pageWidth="850" pageHeight="1100" math="0" shadow="1">
      <root>
        <mxCell id="0" />
        <mxCell id="1" parent="0" />
        <mxCell id="BCNHIpplxCspctAXxtMK-1" value="&lt;font style=&quot;font-size: 14px;&quot;&gt;Transaction&lt;/font&gt;" style="shape=associativeEntity;whiteSpace=wrap;html=1;align=center;fillStyle=auto;shadow=1;rounded=1;gradientColor=none;strokeColor=default;" vertex="1" parent="1">
          <mxGeometry x="240" y="170" width="130" height="50" as="geometry" />
        </mxCell>
        <mxCell id="BCNHIpplxCspctAXxtMK-4" value="&lt;font style=&quot;font-size: 14px;&quot;&gt;Customer&lt;/font&gt;" style="whiteSpace=wrap;html=1;align=center;shadow=1;rounded=1;gradientColor=none;strokeColor=default;" vertex="1" parent="1">
          <mxGeometry x="50" y="170" width="130" height="50" as="geometry" />
        </mxCell>
        <mxCell id="BCNHIpplxCspctAXxtMK-5" value="&lt;font style=&quot;font-size: 14px;&quot;&gt;Employee&lt;/font&gt;" style="whiteSpace=wrap;html=1;align=center;shadow=1;rounded=1;gradientColor=none;strokeColor=default;" vertex="1" parent="1">
          <mxGeometry x="430" y="20" width="130" height="50" as="geometry" />
        </mxCell>
        <mxCell id="BCNHIpplxCspctAXxtMK-7" value="&lt;font style=&quot;font-size: 14px;&quot;&gt;Movie&lt;/font&gt;" style="rounded=1;arcSize=10;whiteSpace=wrap;html=1;align=center;shadow=1;gradientColor=none;strokeColor=default;" vertex="1" parent="1">
          <mxGeometry x="430" y="170" width="130" height="50" as="geometry" />
        </mxCell>
        <mxCell id="BCNHIpplxCspctAXxtMK-8" value="" style="edgeStyle=entityRelationEdgeStyle;fontSize=12;html=1;endArrow=ERoneToMany;startArrow=ERmandOne;rounded=0;sourcePerimeterSpacing=-5;entryX=1;entryY=0.5;entryDx=0;entryDy=0;exitX=0;exitY=0.5;exitDx=0;exitDy=0;" edge="1" parent="1" source="BCNHIpplxCspctAXxtMK-7" target="BCNHIpplxCspctAXxtMK-1">
          <mxGeometry width="100" height="100" relative="1" as="geometry">
            <mxPoint x="720" y="240" as="sourcePoint" />
            <mxPoint x="160" y="420" as="targetPoint" />
          </mxGeometry>
        </mxCell>
        <mxCell id="BCNHIpplxCspctAXxtMK-9" value="" style="edgeStyle=entityRelationEdgeStyle;fontSize=12;html=1;endArrow=ERoneToMany;startArrow=ERmandOne;rounded=0;sourcePerimeterSpacing=-5;entryX=0;entryY=0.5;entryDx=0;entryDy=0;exitX=1;exitY=0.5;exitDx=0;exitDy=0;" edge="1" parent="1" source="BCNHIpplxCspctAXxtMK-4" target="BCNHIpplxCspctAXxtMK-1">
          <mxGeometry width="100" height="100" relative="1" as="geometry">
            <mxPoint x="270" y="260" as="sourcePoint" />
            <mxPoint x="200" y="260" as="targetPoint" />
          </mxGeometry>
        </mxCell>
        <mxCell id="BCNHIpplxCspctAXxtMK-10" value="Handle" style="shape=rhombus;perimeter=rhombusPerimeter;whiteSpace=wrap;html=1;align=center;" vertex="1" parent="1">
          <mxGeometry x="442.5" y="100" width="105" height="40" as="geometry" />
        </mxCell>
        <mxCell id="BCNHIpplxCspctAXxtMK-11" value="" style="fontSize=12;html=1;endArrow=ERoneToMany;rounded=0;exitX=0.5;exitY=0;exitDx=0;exitDy=0;entryX=0.5;entryY=1;entryDx=0;entryDy=0;" edge="1" parent="1" source="BCNHIpplxCspctAXxtMK-10" target="BCNHIpplxCspctAXxtMK-5">
          <mxGeometry width="100" height="100" relative="1" as="geometry">
            <mxPoint x="499.5" y="69.5" as="sourcePoint" />
            <mxPoint x="505" y="40" as="targetPoint" />
          </mxGeometry>
        </mxCell>
        <mxCell id="BCNHIpplxCspctAXxtMK-15" value="" style="fontSize=12;html=1;endArrow=ERoneToMany;rounded=0;exitX=0.5;exitY=1;exitDx=0;exitDy=0;entryX=0.5;entryY=0;entryDx=0;entryDy=0;" edge="1" parent="1" source="BCNHIpplxCspctAXxtMK-10" target="BCNHIpplxCspctAXxtMK-7">
          <mxGeometry width="100" height="100" relative="1" as="geometry">
            <mxPoint x="504.5" y="150" as="sourcePoint" />
            <mxPoint x="505" y="110" as="targetPoint" />
            <Array as="points" />
          </mxGeometry>
        </mxCell>
        <mxCell id="BCNHIpplxCspctAXxtMK-16" value="&lt;font style=&quot;font-size: 14px;&quot;&gt;Reservatio&lt;/font&gt;n" style="shape=associativeEntity;whiteSpace=wrap;html=1;align=center;rounded=1;" vertex="1" parent="1">
          <mxGeometry x="240" y="240" width="130" height="60" as="geometry" />
        </mxCell>
        <mxCell id="BCNHIpplxCspctAXxtMK-18" value="" style="edgeStyle=entityRelationEdgeStyle;fontSize=12;html=1;endArrow=ERoneToMany;startArrow=ERmandOne;rounded=0;sourcePerimeterSpacing=-5;entryX=0;entryY=0.5;entryDx=0;entryDy=0;exitX=1;exitY=0.75;exitDx=0;exitDy=0;" edge="1" parent="1" source="BCNHIpplxCspctAXxtMK-4" target="BCNHIpplxCspctAXxtMK-16">
          <mxGeometry width="100" height="100" relative="1" as="geometry">
            <mxPoint x="150" y="240" as="sourcePoint" />
            <mxPoint x="215" y="327" as="targetPoint" />
            <Array as="points">
              <mxPoint x="165" y="352" />
            </Array>
          </mxGeometry>
        </mxCell>
        <mxCell id="BCNHIpplxCspctAXxtMK-21" value="" style="edgeStyle=entityRelationEdgeStyle;fontSize=12;html=1;endArrow=ERoneToMany;startArrow=ERmandOne;rounded=0;sourcePerimeterSpacing=-5;entryX=1;entryY=0.5;entryDx=0;entryDy=0;exitX=0;exitY=0.75;exitDx=0;exitDy=0;" edge="1" parent="1" source="BCNHIpplxCspctAXxtMK-7" target="BCNHIpplxCspctAXxtMK-16">
          <mxGeometry width="100" height="100" relative="1" as="geometry">
            <mxPoint x="380" y="230" as="sourcePoint" />
            <mxPoint x="440" y="292" as="targetPoint" />
            <Array as="points">
              <mxPoint x="365" y="374" />
            </Array>
          </mxGeometry>
        </mxCell>
        <mxCell id="BCNHIpplxCspctAXxtMK-23" value="&lt;font style=&quot;font-size: 14px;&quot;&gt;LatePayment&lt;/font&gt;" style="rounded=1;arcSize=10;whiteSpace=wrap;html=1;align=center;" vertex="1" parent="1">
          <mxGeometry x="50" y="100" width="130" height="50" as="geometry" />
        </mxCell>
      </root>
    </mxGraphModel>
  </diagram>
</mxfile>
